<svg width="25" height="21" viewBox="0 0 25 21" fill="none" xmlns="http://www.w3.org/2000/svg">
<path d="M16.1614 20.7802L21.8403 20.7599C22.6291 20.7571 23.2985 20.4895 23.8488 19.9573C24.3989 19.4249 24.6726 18.78 24.6699 18.0222L24.6504 12.5673C24.6477 11.8095 24.3695 11.1667 23.8155 10.6384C23.2614 10.1101 22.5899 9.84724 21.8013 9.85006L18.4887 9.8619C18.0944 9.86331 17.7587 9.73186 17.4817 9.46775C17.2046 9.20378 17.0655 8.8821 17.0641 8.5031L17.0625 8.04877C17.0589 7.04483 17.4256 6.1867 18.1625 5.47363C18.8993 4.76091 19.7902 4.40256 20.8354 4.39882L21.7818 4.39544C22.0383 4.39452 22.2597 4.30352 22.4464 4.12303C22.6331 3.94254 22.726 3.72904 22.7251 3.4828L22.7186 1.66424C22.7177 1.41839 22.6233 1.20517 22.4354 1.02597C22.2472 0.846872 22.0253 0.757406 21.7688 0.758323L20.8224 0.761707C19.7969 0.765373 18.8191 0.960933 17.8888 1.34769C16.9585 1.7345 16.1544 2.25604 15.4764 2.91198C14.7986 3.56796 14.2616 4.34391 13.8655 5.24036C13.4695 6.13676 13.2732 7.07738 13.2767 8.06226L13.3125 18.063C13.3152 18.8208 13.5935 19.4637 14.1474 19.992C14.7013 20.5203 15.3728 20.783 16.1614 20.7802Z" fill="#FFB4B4"/>
<path d="M0.897911 20.0388C1.45176 20.5671 2.12312 20.8299 2.91194 20.8271L8.59058 20.8068C9.3794 20.804 10.0488 20.5364 10.5989 20.0041C11.149 19.4718 11.4226 18.8269 11.4199 18.0691L11.4004 12.6141C11.3977 11.8564 11.1195 11.2135 10.5656 10.6853C10.0117 10.157 9.34035 9.89411 8.55158 9.89693L5.23899 9.90878C4.84476 9.91019 4.50874 9.77874 4.23177 9.51462C3.95505 9.2505 3.8156 8.92897 3.81425 8.54998L3.81262 8.09565C3.80903 7.09171 4.17575 6.23357 4.91272 5.5205C5.64953 4.80778 6.54021 4.44943 7.58553 4.44569L8.53208 4.44231C8.78837 4.44139 9.01 4.35039 9.19655 4.1699C9.38326 3.98941 9.4763 3.77592 9.47542 3.52967L9.46892 1.71112C9.46804 1.46527 9.37347 1.25205 9.18548 1.07285C8.99769 0.893746 8.77542 0.80428 8.51908 0.805197L7.57253 0.808581C6.54726 0.812247 5.56949 1.00781 4.63903 1.39456C3.70888 1.78137 2.90493 2.30291 2.2269 2.95885C1.54894 3.61483 1.01156 4.39098 0.615765 5.28723C0.219813 6.18343 0.0233929 7.12425 0.0269136 8.10913L0.062663 18.1099C0.0655273 18.8677 0.34365 19.5106 0.897911 20.0388Z" fill="#FFB4B4"/>
</svg>
