<svg width="25" height="21" viewBox="0 0 25 21" fill="none" xmlns="http://www.w3.org/2000/svg">
<path d="M16.1614 20.7873L21.8403 20.767C22.6291 20.7642 23.2985 20.4966 23.8488 19.9643C24.3989 19.432 24.6726 18.7871 24.6699 18.0293L24.6504 12.5744C24.6477 11.8166 24.3695 11.1737 23.8155 10.6455C23.2614 10.1172 22.5899 9.85432 21.8013 9.85714L18.4887 9.86898C18.0944 9.87039 17.7587 9.73894 17.4817 9.47483C17.2046 9.21086 17.0655 8.88918 17.0641 8.51018L17.0625 8.05585C17.0589 7.05191 17.4256 6.19378 18.1625 5.48071C18.8993 4.76799 19.7902 4.40964 20.8354 4.4059L21.7818 4.40252C22.0383 4.4016 22.2597 4.3106 22.4464 4.13011C22.6331 3.94962 22.726 3.73612 22.7251 3.48988L22.7186 1.67132C22.7177 1.42547 22.6233 1.21225 22.4354 1.03305C22.2472 0.853953 22.0253 0.764486 21.7688 0.765403L20.8224 0.768787C19.7969 0.772453 18.8191 0.968013 17.8888 1.35477C16.9585 1.74158 16.1544 2.26312 15.4764 2.91906C14.7986 3.57504 14.2616 4.35099 13.8655 5.24744C13.4695 6.14384 13.2732 7.08446 13.2767 8.06934L13.3125 18.0701C13.3152 18.8279 13.5935 19.4708 14.1474 19.9991C14.7013 20.5274 15.3728 20.7901 16.1614 20.7873Z" fill="#88AFBB"/>
<path d="M0.897911 20.0459C1.45176 20.5742 2.12312 20.837 2.91194 20.8342L8.59058 20.8139C9.3794 20.811 10.0488 20.5434 10.5989 20.0112C11.149 19.4788 11.4226 18.8339 11.4199 18.0761L11.4004 12.6212C11.3977 11.8635 11.1195 11.2206 10.5656 10.6923C10.0117 10.1641 9.34035 9.90119 8.55158 9.90401L5.23899 9.91586C4.84476 9.91727 4.50874 9.78582 4.23177 9.5217C3.95505 9.25758 3.8156 8.93605 3.81425 8.55706L3.81262 8.10273C3.80903 7.09879 4.17575 6.24065 4.91272 5.52758C5.64953 4.81486 6.54021 4.45651 7.58553 4.45277L8.53208 4.44939C8.78837 4.44847 9.01 4.35747 9.19655 4.17698C9.38326 3.99649 9.4763 3.783 9.47542 3.53675L9.46892 1.7182C9.46804 1.47235 9.37347 1.25913 9.18548 1.07993C8.99769 0.900826 8.77542 0.81136 8.51908 0.812277L7.57253 0.815661C6.54726 0.819327 5.56949 1.01489 4.63903 1.40164C3.70888 1.78845 2.90493 2.30999 2.2269 2.96593C1.54894 3.62191 1.01156 4.39806 0.615765 5.29431C0.219813 6.19051 0.0233929 7.13133 0.0269136 8.11621L0.062663 18.117C0.0655273 18.8747 0.34365 19.5177 0.897911 20.0459Z" fill="#88AFBB"/>
</svg>
