<svg width="25" height="21" viewBox="0 0 25 21" fill="none" xmlns="http://www.w3.org/2000/svg">
<path d="M16.1614 20.7824L21.8403 20.7621C22.6291 20.7593 23.2985 20.4917 23.8488 19.9595C24.3989 19.4271 24.6726 18.7822 24.6699 18.0244L24.6504 12.5695C24.6477 11.8117 24.3695 11.1689 23.8155 10.6406C23.2614 10.1123 22.5899 9.84944 21.8013 9.85226L18.4887 9.8641C18.0944 9.86551 17.7587 9.73406 17.4817 9.46994C17.2046 9.20598 17.0655 8.8843 17.0641 8.5053L17.0625 8.05097C17.0589 7.04703 17.4256 6.1889 18.1625 5.47583C18.8993 4.76311 19.7902 4.40475 20.8354 4.40102L21.7818 4.39763C22.0383 4.39672 22.2597 4.30571 22.4464 4.12522C22.6331 3.94473 22.726 3.73124 22.7251 3.48499L22.7186 1.66644C22.7177 1.42059 22.6233 1.20737 22.4354 1.02817C22.2472 0.84907 22.0253 0.759603 21.7688 0.76052L20.8224 0.763904C19.7969 0.76757 18.8191 0.96313 17.8888 1.34989C16.9585 1.73669 16.1544 2.25824 15.4764 2.91417C14.7986 3.57016 14.2616 4.3461 13.8655 5.24256C13.4695 6.13896 13.2732 7.07957 13.2767 8.06446L13.3125 18.0652C13.3152 18.823 13.5935 19.4659 14.1474 19.9942C14.7013 20.5225 15.3728 20.7852 16.1614 20.7824Z" fill="#C1D0B5"/>
<path d="M0.897911 20.041C1.45176 20.5693 2.12312 20.8321 2.91194 20.8293L8.59058 20.809C9.3794 20.8062 10.0488 20.5386 10.5989 20.0063C11.149 19.4739 11.4226 18.8291 11.4199 18.0713L11.4004 12.6163C11.3977 11.8586 11.1195 11.2157 10.5656 10.6875C10.0117 10.1592 9.34035 9.89631 8.55158 9.89913L5.23899 9.91098C4.84476 9.91239 4.50874 9.78093 4.23177 9.51682C3.95505 9.2527 3.8156 8.93117 3.81425 8.55217L3.81262 8.09785C3.80903 7.0939 4.17575 6.23577 4.91272 5.5227C5.64953 4.80998 6.54021 4.45163 7.58553 4.44789L8.53208 4.44451C8.78837 4.44359 9.01 4.35259 9.19655 4.1721C9.38326 3.99161 9.4763 3.77812 9.47542 3.53187L9.46892 1.71331C9.46804 1.46747 9.37347 1.25425 9.18548 1.07504C8.99769 0.895943 8.77542 0.806477 8.51908 0.807394L7.57253 0.810778C6.54726 0.814444 5.56949 1.01 4.63903 1.39676C3.70888 1.78357 2.90493 2.30511 2.2269 2.96105C1.54894 3.61703 1.01156 4.39318 0.615765 5.28943C0.219813 6.18563 0.0233929 7.12645 0.0269136 8.11133L0.062663 18.1121C0.0655273 18.8699 0.34365 19.5128 0.897911 20.041Z" fill="#C1D0B5"/>
</svg>
